<?xml version="1.0" encoding="UTF-8" standalone="no"?>
<!DOCTYPE svg PUBLIC "-//W3C//DTD SVG 1.1//EN" "http://www.w3.org/Graphics/SVG/1.1/DTD/svg11.dtd">
<svg version="1.1" xmlns="http://www.w3.org/2000/svg" xmlns:xlink="http://www.w3.org/1999/xlink" preserveAspectRatio="xMidYMid meet" viewBox="0 0 150 150" width="150" height="150"><defs><path d="M75.01 95.93C64.09 95.93 55.24 87.08 55.24 76.16C55.24 65.24 64.09 56.39 75.01 56.39C85.92 56.39 94.77 65.24 94.77 76.16C94.76 87.07 85.92 95.92 75.01 95.93M75.01 36.87C53.31 36.89 35.73 54.47 35.71 76.17C35.71 103.05 70.88 142.53 72.37 144.2C73.67 145.65 75.91 145.77 77.37 144.46C77.46 144.38 77.55 144.29 77.63 144.2C79.13 142.53 114.29 103.06 114.29 76.17C114.27 54.48 96.7 36.9 75.01 36.87" id="bQgprEbMQ"></path><path d="M41.69 108.3L41.56 108.05C41.44 107.93 41.38 107.86 41.36 107.85C33.09 99.24 28.53 87.94 28.53 76.05C28.53 50.71 49.15 30.09 74.49 30.09C91.76 30.09 107.42 39.66 115.36 55.06C115.4 55.14 115.58 55.5 115.92 56.15L130.41 56.15C129.72 54.49 129.34 53.57 129.26 53.38C120.02 31.14 98.53 16.77 74.49 16.77C41.8 16.77 15.21 43.36 15.21 76.05C15.21 99.69 29.27 121.05 51.02 130.47C51.44 130.66 53.57 131.58 57.4 133.23C55.03 129.8 53.72 127.89 53.46 127.5C48.89 120.86 44.93 114.4 41.69 108.3" id="im7bzzlfq"></path><path d="M134.39 71.57L134.24 69.73C106.27 69.73 90.73 69.73 87.62 69.73C85.19 65.24 80.5 62.4 75.32 62.4C67.61 62.4 61.33 68.68 61.33 76.39C61.33 84.1 67.61 90.38 75.32 90.38C80.5 90.38 85.19 87.54 87.62 83.05C90.94 83.05 117.47 83.05 120.79 83.05C119.57 91.41 116.08 99.23 110.62 105.77C110.6 105.81 110.4 106.11 110.38 106.15C107.03 112.75 102.78 119.84 97.73 127.23C97.46 127.63 96.09 129.63 93.63 133.23C97.59 131.39 99.78 130.37 100.22 130.17C121.11 120.46 134.6 99.35 134.6 76.39C134.6 74.9 134.53 73.32 134.39 71.57" id="b2ZrkBmsIJ"></path></defs><g><g><g><use xlink:href="#bQgprEbMQ" opacity="1" fill="#85c9bf" fill-opacity="1"></use><g><use xlink:href="#bQgprEbMQ" opacity="1" fill-opacity="0" stroke="#000000" stroke-width="1" stroke-opacity="0"></use></g></g><g><use xlink:href="#im7bzzlfq" opacity="1" fill="#ffffff" fill-opacity="1"></use><g><use xlink:href="#im7bzzlfq" opacity="1" fill-opacity="0" stroke="#000000" stroke-width="1" stroke-opacity="0"></use></g></g><g><use xlink:href="#b2ZrkBmsIJ" opacity="1" fill="#ffffff" fill-opacity="1"></use><g><use xlink:href="#b2ZrkBmsIJ" opacity="1" fill-opacity="0" stroke="#000000" stroke-width="1" stroke-opacity="0"></use></g></g></g></g></svg>